
<svg width="100" height="100" viewBox="0 0 100 100" fill="none" xmlns="http://www.w3.org/2000/svg">
<defs>
<linearGradient id="grad1" x1="0%" y1="0%" x2="100%" y2="100%">
<stop offset="0%" style="stop-color:rgb(167, 139, 250);stop-opacity:1" />
<stop offset="100%" style="stop-color:rgb(34, 211, 238);stop-opacity:1" />
</linearGradient>
</defs>
<path d="M50 0C22.3858 0 0 22.3858 0 50C0 77.6142 22.3858 100 50 100C77.6142 100 100 77.6142 100 50C100 22.3858 77.6142 0 50 0ZM50 88.2353C28.9137 88.2353 11.7647 71.0863 11.7647 50C11.7647 28.9137 28.9137 11.7647 50 11.7647C71.0863 11.7647 88.2353 28.9137 88.2353 50C88.2353 71.0863 71.0863 88.2353 50 88.2353Z" fill="url(#grad1)"/>
<circle cx="50" cy="50" r="10" fill="white"/>
<circle cx="30" cy="30" r="5" fill="white"/>
<circle cx="75" cy="65" r="7" fill="white"/>
<circle cx="25" cy="70" r="3" fill="white"/>
<circle cx="80" cy="20" r="4" fill="white"/>
</svg>
